<?xml version="1.0" encoding="UTF-8" standalone="no"?>
<!DOCTYPE svg PUBLIC "-//W3C//DTD SVG 1.1//EN" "http://www.w3.org/Graphics/SVG/1.1/DTD/svg11.dtd">
<svg width="100%" height="100%" viewBox="0 0 1000 1000" version="1.1" xmlns="http://www.w3.org/2000/svg" xmlns:xlink="http://www.w3.org/1999/xlink" xml:space="preserve" xmlns:serif="http://www.serif.com/" style="fill-rule:evenodd;clip-rule:evenodd;stroke-linejoin:round;stroke-miterlimit:2;">
    <g transform="matrix(1.00711,0,0,1.00655,-4.42627,-4.3386)">
        <ellipse cx="500.864" cy="501.054" rx="496.469" ry="496.744" style="fill:rgb(255,195,0);"/>
        <clipPath id="_clip1">
            <ellipse cx="500.864" cy="501.054" rx="496.469" ry="496.744"/>
        </clipPath>
        <g clip-path="url(#_clip1)">
            <g transform="matrix(19.2691,0,0,19.6649,-4391.91,-6392.11)">
                <path d="M253.49,347.752C253.49,348.826 253.055,349.77 252.184,350.584C251.313,351.398 250.324,351.805 249.217,351.805C248.859,351.805 248.623,351.719 248.509,351.548C248.395,351.377 248.339,351.154 248.339,350.877C248.339,350.6 248.371,350.332 248.436,350.071C247.85,350.267 247.199,350.568 246.483,350.975C245.767,351.382 244.888,351.984 243.846,352.781C242.805,353.579 242.284,354.173 242.284,354.564C242.284,354.694 242.475,354.759 242.858,354.759C243.24,354.759 243.83,354.625 244.628,354.356C245.425,354.087 245.983,353.953 246.3,353.953C246.617,353.953 246.825,353.969 246.923,354.002C247.134,354.116 247.362,354.364 247.606,354.747C247.85,355.129 247.972,355.43 247.972,355.65C247.972,355.87 247.761,356.159 247.338,356.517C246.914,356.875 246.434,357.147 245.897,357.335C245.36,357.522 245.002,357.664 244.823,357.762C241.389,359.682 239.672,361.001 239.672,361.717C239.672,362.986 240.754,363.621 242.919,363.621C244.302,363.621 245.694,363.182 247.093,362.303C248.282,361.554 249.352,360.793 250.304,360.02C251.256,359.247 251.858,358.771 252.11,358.592C252.363,358.413 252.554,358.323 252.684,358.323C253.107,358.323 253.319,358.795 253.319,359.739C253.319,360.683 253.262,361.306 253.148,361.607C253.034,361.908 252.709,362.278 252.172,362.718C248.688,365.55 245.393,366.966 242.284,366.966C240.624,366.966 239.297,366.738 238.304,366.282C236.481,365.452 235.57,364.183 235.57,362.474C235.57,360.228 237.124,358.527 240.233,357.371C239.615,357.094 239.216,356.74 239.037,356.309C238.858,355.878 238.768,355.186 238.768,354.234C238.768,353.282 239.212,352.273 240.099,351.207C240.986,350.14 242.072,349.266 243.358,348.582C246.223,347.036 248.778,346.263 251.024,346.263C251.561,346.263 252.106,346.393 252.66,346.653C253.213,346.914 253.49,347.28 253.49,347.752Z" style="fill:rgb(0,29,61);fill-rule:nonzero;"/>
                <path d="M274.047,358.812C274.16,359.56 274.217,360.15 274.217,360.582C274.217,361.013 274.14,361.387 273.985,361.705C273.831,362.022 273.489,362.47 272.96,363.047C272.431,363.625 271.8,364.207 271.068,364.793C269.278,366.209 267.447,366.917 265.575,366.917C262.889,366.917 261.547,365.729 261.547,363.353C261.547,361.286 263.345,357.168 266.942,350.999C267.072,350.771 267.162,350.608 267.211,350.511C265.957,351.39 263.561,353.786 260.021,357.701C256.481,361.615 254.125,364.386 252.953,366.014C252.855,366.16 252.611,366.323 252.22,366.502C251.83,366.681 251.525,366.771 251.305,366.771C251.085,366.771 250.849,366.701 250.597,366.563C250.345,366.425 250.186,366.355 250.121,366.355C249.909,366.355 249.803,366.286 249.803,366.148C249.803,366.01 250.092,365.261 250.67,363.902C251.248,362.543 252.009,360.854 252.953,358.836C255.541,353.27 259.39,346.027 264.501,337.107C266.291,333.982 267.691,331.769 268.7,330.467C269.416,329.539 270.62,329.075 272.313,329.075C272.671,329.075 272.875,329.181 272.923,329.393C272.972,329.604 272.997,329.832 272.997,330.076C272.997,330.32 272.948,330.564 272.85,330.809L270.238,334.886C265.062,342.959 261.164,349.648 258.544,354.954C261.083,351.862 263.548,349.477 265.941,347.801C267.422,346.743 268.533,346.214 269.274,346.214C270.014,346.214 270.686,346.332 271.288,346.568C271.89,346.804 272.191,347.369 272.191,348.265C272.191,348.59 271.662,349.795 270.604,351.878C267.43,358.128 265.843,361.599 265.843,362.291C265.843,362.982 266.128,363.328 266.698,363.328C267.528,363.328 268.806,362.522 270.531,360.911C271.833,359.69 272.655,358.909 272.997,358.567C273.192,358.421 273.371,358.348 273.534,358.348C273.843,358.348 274.014,358.502 274.047,358.812Z" style="fill:rgb(0,29,61);fill-rule:nonzero;"/>
            </g>
        </g>
    </g>
</svg>
